<svg width="28" height="21" viewBox="0 0 28 21" fill="none" xmlns="http://www.w3.org/2000/svg">
<path d="M26.1719 0.384766H1.79688C1.27832 0.384766 0.859375 0.803711 0.859375 1.32227V20.0723C0.859375 20.5908 1.27832 21.0098 1.79688 21.0098H26.1719C26.6904 21.0098 27.1094 20.5908 27.1094 20.0723V1.32227C27.1094 0.803711 26.6904 0.384766 26.1719 0.384766ZM25 3.63086V18.9004H2.96875V3.63086L2.16016 3.00098L3.31152 1.52148L4.56543 2.49707H23.4062L24.6602 1.52148L25.8115 3.00098L25 3.63086ZM23.4062 2.49414L13.9844 9.81836L4.5625 2.49414L3.30859 1.51855L2.15723 2.99805L2.96582 3.62793L12.9736 11.4092C13.2614 11.6328 13.6155 11.7542 13.98 11.7542C14.3444 11.7542 14.6985 11.6328 14.9863 11.4092L25 3.63086L25.8086 3.00098L24.6572 1.52148L23.4062 2.49414Z" fill="#EF2779"/>
</svg>
